<?xml version="1.0" standalone="no"?>
<!DOCTYPE svg PUBLIC "-//W3C//DTD SVG 20010904//EN"
 "http://www.w3.org/TR/2001/REC-SVG-20010904/DTD/svg10.dtd">
<svg version="1.0" xmlns="http://www.w3.org/2000/svg"
 width="700.000000pt" height="700.000000pt" viewBox="0 0 700.000000 700.000000"
 preserveAspectRatio="xMidYMid meet">
<metadata>
Created by potrace 1.14, written by Peter Selinger 2001-2017
</metadata>
<g transform="translate(0.000000,700.000000) scale(0.100000,-0.100000)"
fill="#000000" stroke="none">
<path d="M2440 6558 c-171 -17 -340 -98 -464 -223 -141 -141 -215 -311 -221
-510 -8 -248 83 -453 274 -618 70 -60 212 -130 314 -155 87 -21 244 -23 335
-4 345 74 602 393 602 748 0 390 -302 726 -685 760 -33 3 -64 7 -70 8 -5 1
-44 -1 -85 -6z m174 -393 c65 -17 152 -71 192 -118 15 -18 40 -59 55 -92 92
-199 -2 -433 -208 -514 -253 -99 -531 103 -517 377 11 239 244 409 478 347z"/>
<path d="M4507 6564 c-1 -1 -38 -4 -82 -7 -267 -19 -508 -181 -625 -422 -147
-300 -85 -658 154 -888 318 -307 831 -279 1116 60 84 100 141 220 169 358 10
51 8 236 -4 289 -31 141 -123 306 -227 402 -36 34 -134 104 -145 104 -3 0 -14
6 -22 13 -15 12 -102 48 -148 62 -27 7 -182 32 -186 29z m103 -405 c88 -31
173 -107 217 -194 71 -140 42 -315 -70 -429 -60 -61 -102 -86 -171 -106 -317
-88 -584 237 -444 538 42 90 152 177 253 201 50 12 169 7 215 -10z"/>
<path d="M3339 4805 c-2 -2 -24 -6 -49 -10 -185 -26 -385 -109 -560 -232 -88
-63 -244 -221 -307 -314 -86 -126 -174 -319 -197 -433 -20 -97 -27 -137 -32
-181 -7 -62 -7 -1978 -1 -2020 3 -16 9 -50 12 -75 11 -68 13 -78 30 -139 65
-227 171 -407 340 -576 171 -171 334 -266 590 -345 31 -9 120 -26 190 -35 54
-7 228 -7 290 0 444 52 827 320 1028 720 64 129 109 268 122 380 3 28 8 64 11
80 8 43 7 1949 -1 2015 -27 240 -128 487 -274 674 -23 29 -181 187 -212 213
-106 85 -268 172 -401 216 -145 48 -223 60 -404 63 -95 2 -173 1 -175 -1z
m326 -388 c212 -51 360 -130 491 -261 163 -164 256 -371 271 -602 l5 -80 -932
0 -931 0 2 65 c1 37 6 82 10 101 4 19 11 50 14 68 35 202 202 443 391 565 174
113 335 158 539 152 66 -2 129 -5 140 -8z m765 -1791 l0 -464 -930 0 -930 0 0
464 0 464 930 0 930 0 0 -464z m-3 -934 c-27 -386 -291 -717 -662 -831 -145
-45 -329 -49 -487 -12 -189 44 -381 169 -509 331 -111 141 -183 328 -196 512
l-6 87 933 0 933 0 -6 -87z"/>
<path d="M1710 4119 c-19 -17 -93 -86 -165 -153 -71 -68 -143 -135 -159 -149
-16 -15 -78 -73 -138 -129 -61 -57 -127 -118 -147 -137 -20 -18 -65 -61 -101
-95 -228 -213 -322 -301 -340 -316 -184 -160 -481 -456 -525 -524 -156 -241
-175 -561 -50 -825 105 -221 298 -388 535 -462 87 -27 144 -34 275 -33 383 2
722 268 827 649 22 79 23 86 26 1000 1 506 1 984 0 1062 l-3 142 -35 -30z
m-344 -1436 c-2 -459 -5 -608 -15 -643 -38 -131 -142 -259 -254 -313 -96 -47
-216 -62 -327 -43 -19 4 -66 22 -105 40 -253 120 -353 415 -224 657 23 43 68
93 172 191 78 73 155 147 173 163 17 17 89 84 159 150 71 66 165 154 209 196
176 165 211 199 212 199 1 0 0 -269 0 -597z"/>
<path d="M5250 3118 c0 -1099 0 -1101 48 -1238 95 -274 325 -486 610 -561 102
-28 270 -33 377 -13 424 81 722 451 710 879 -4 153 -32 260 -99 379 -61 107
-100 153 -262 303 -54 50 -117 108 -140 130 -22 21 -92 85 -154 143 -62 58
-120 112 -129 121 -9 8 -52 49 -96 90 -44 40 -141 131 -215 200 -154 144 -250
233 -300 279 -19 18 -89 83 -155 145 -66 62 -137 127 -158 145 l-37 32 0
-1034z m450 101 c166 -155 266 -248 299 -279 21 -19 96 -89 167 -155 337 -314
354 -331 390 -402 70 -140 64 -321 -16 -460 -160 -279 -529 -331 -756 -108
-66 65 -113 147 -136 236 -12 43 -15 169 -15 637 -1 320 2 582 6 582 3 0 31
-23 61 -51z"/>
</g>
</svg>
